<?xml version="1.0" encoding="UTF-8"?>
<svg width="35px" height="35px" viewBox="0 0 35 35" version="1.1" xmlns="http://www.w3.org/2000/svg" xmlns:xlink="http://www.w3.org/1999/xlink">
    <!-- Generator: Sketch 42 (36781) - http://www.bohemiancoding.com/sketch -->
    <title>A</title>
    <desc>Created with Sketch.</desc>
    <defs></defs>
    <g id="Branding" stroke="none" stroke-width="1" fill="none" fill-rule="evenodd">
        <g id="Tablet-Portrait" transform="translate(-384.000000, -486.000000)">
            <g id="logo" transform="translate(384.000000, 486.000000)">
                <g id="A">
                    <circle id="Oval" fill="#4C4F55" cx="17.5" cy="17.5" r="17.5"></circle>
                    <path d="M9.47357381,29.3330637 C8.57018317,28.8617294 8.11849462,28.2529318 8.11849462,27.5066526 C8.11849462,26.7603734 8.51126727,25.6066037 9.29682435,24.045309 C10.0823814,22.4840143 11.1330483,20.6919891 12.4488564,18.6691796 C11.2705207,18.5906239 9.82708127,18.5513467 8.11849462,18.5513467 C8.58982887,17.2748164 9.72886955,16.6365609 11.5356508,16.6365609 C11.9284294,16.6365609 12.6550588,16.6954768 13.7155608,16.8133103 C15.9151206,13.6318041 17.9673577,10.9511308 19.8723336,8.77120994 C21.7773096,6.59128904 23.0440013,5.50134494 23.672447,5.50134494 C24.1830591,5.50134494 24.8507726,5.88429828 25.6756075,6.65021643 C25.282829,6.94480033 24.708399,8.1673052 23.9523003,10.3177677 C23.1962016,12.4682302 22.5284881,14.8248661 21.9491398,17.3877461 C21.3697914,19.950626 21.0801216,22.0175921 21.0801216,23.5887062 C21.0801216,24.3742633 21.1635858,24.9585126 21.3305167,25.3414717 C21.4974476,25.7244308 21.7576594,25.9159075 22.1111601,25.9159075 C22.6021333,25.9159075 23.181473,25.5575024 23.8491965,24.8406816 C24.51692,24.1238607 25.2435494,23.0191877 26.0291065,21.5266292 L26.5593548,22.0863358 C25.9309092,23.7556446 25.1257252,25.0959813 24.1437789,26.107386 C23.1618326,27.1187908 22.1406237,27.6244856 21.0801216,27.6244856 C20.176731,27.6244856 19.5188368,27.2317129 19.1064193,26.4461558 C18.6940019,25.6605987 18.4877962,24.5313774 18.4877962,23.0584579 C18.4877962,22.0961504 18.6154473,20.8785552 18.8707534,19.4056357 C17.8691681,19.2485243 16.4650059,19.0619573 14.6582246,18.8459291 C12.8318044,22.086352 11.1036047,25.5820286 9.47357381,29.3330637 Z M19.1653358,17.9621818 C19.5188365,16.3125119 19.9803444,14.6039509 20.5498732,12.8364475 C21.1194021,11.0689441 21.6987418,9.48803416 22.2879096,8.09367034 C21.4237968,8.78103279 20.4124072,9.92007346 19.2537105,11.5108265 C18.0950138,13.1015796 16.8774186,14.9868883 15.6008884,17.1668092 L17.8102566,17.6381411 C18.3994244,17.7952525 18.851113,17.903265 19.1653358,17.9621818 Z" fill="#FFFFFF"></path>
                </g>
            </g>
        </g>
    </g>
</svg>